<svg xmlns="http://www.w3.org/2000/svg" width="15" height="15" viewBox="0 0 24 24">
  <path style="stroke-antialiasing:true"
     d="M12 20.016c4.406 0 8.016-3.609 8.016-8.016s-3.609-8.016-8.016-8.016-8.016 3.609-8.016 8.016 3.609 8.016 8.016 8.016zM12 2.016c5.531 0 9.984 4.453 9.984 9.984s-4.453 9.984-9.984 9.984-9.984-4.453-9.984-9.984 4.453-9.984 9.984-9.984zM12.984 6.984v4.031h4.031v1.969h-4.031v4.031h-1.969v-4.031h-4.031v-1.969h4.031v-4.031h1.969z"
      />
  <path
     style="fill:#f9f9f9;stroke-width:0.10169491"
     d="M 10.10287,19.728958 C 8.8980736,19.424163 7.5854911,18.712832 6.6973249,17.883382 4.903733,16.208365 4.0797258,14.377661 4.0675014,12.040678 4.0607308,10.746317 4.2430813,9.8787214 4.7587475,8.7518363 6.9134424,4.0431825 12.684332,2.5864564 16.837048,5.7029519 c 1.257339,0.9435971 2.296078,2.4596575 2.809444,4.1004379 0.486127,1.5537262 0.360566,3.6915232 -0.309269,5.2656132 -0.889616,2.090565 -2.757702,3.802512 -4.927054,4.515237 -1.104908,0.36301 -3.170154,0.432399 -4.307299,0.144718 z m 2.934418,-4.68828 V 13.00678 h 2.033898 2.033899 v -1.016949 -1.01695 H 15.071186 13.037288 V 8.9389831 6.9050847 H 12.020339 11.00339 V 8.9389831 10.972881 H 8.9694915 6.9355932 v 1.01695 1.016949 H 8.9694915 11.00339 v 2.033898 2.033898 h 1.016949 1.016949 z"
      />
  <path
     style="fill:#ffffff;stroke-width:0.10169491"
     d="M 10.328676,19.78996 C 8.7984182,19.457159 7.6157335,18.788175 6.3721878,17.551977 5.0166098,16.204409 4.3257274,14.785994 4.0862496,12.858834 3.8052828,10.597798 4.6164744,8.2448423 6.2665371,6.5346563 7.8955047,4.8463341 9.7110995,4.0664978 12.005024,4.0698549 c 4.600791,0.00673 8.1665,3.7644817 7.915559,8.3418671 -0.06836,1.246836 -0.257665,2.013697 -0.741746,3.004662 -1.056916,2.163622 -3.043454,3.773588 -5.32799,4.318006 -1.010417,0.240788 -2.558228,0.265208 -3.522171,0.05557 z m 2.708612,-4.727358 v -2.031749 l 2.008475,-0.02757 2.008474,-0.02757 0.02911,-0.991525 0.02911,-0.991526 h -2.03758 -2.037581 V 8.9587571 6.9248588 H 12.020339 11.00339 V 8.9587571 10.992655 H 8.9694915 6.9355932 v 1.01695 1.016949 H 8.9694915 11.00339 v 2.033898 2.033898 h 1.016949 1.016949 z"
      />
</svg>
