<svg xmlns="http://www.w3.org/2000/svg" width="15" height="15" viewBox="0 0 24 24" >
  <path style="stroke-antialiasing:true"
     d="M12 20.016c4.406 0 8.016-3.609 8.016-8.016s-3.609-8.016-8.016-8.016-8.016 3.609-8.016 8.016 3.609 8.016 8.016 8.016zM12 2.016c5.531 0 9.984 4.453 9.984 9.984s-4.453 9.984-9.984 9.984-9.984-4.453-9.984-9.984 4.453-9.984 9.984-9.984zM6.984 11.016h10.031v1.969h-10.031v-1.969z"
      />
  <path
     style="fill:#ffffff;stroke-width:0.10169491"
     d="M 10.563578,19.848427 C 6.8919123,19.075401 4.2628366,16.066183 4.0757022,12.422457 3.9052415,9.1033884 5.704158,6.1487212 8.7416668,4.7587475 9.8327934,4.2594445 10.734002,4.0666691 11.978174,4.0664338 c 2.256997,-4.268e-4 4.13311,0.7977366 5.706826,2.4278803 1.542763,1.59808 2.248137,3.3363472 2.242415,5.5260249 -0.0063,2.406402 -1.014703,4.535439 -2.896972,6.1163 -0.764731,0.642275 -2.027711,1.307661 -2.966036,1.562619 -0.717409,0.194932 -2.851551,0.285866 -3.500829,0.149169 z m 6.500829,-7.828088 V 11.00339 H 11.979661 6.8949153 v 1.016949 1.016949 h 5.0847457 5.084746 z"
      />
</svg>
